<mxfile host="app.diagrams.net" agent="Mozilla/5.0 (X11; Linux x86_64; rv:109.0) Gecko/20100101 Firefox/115.0" version="24.7.14">
  <diagram name="Page-1" id="SdW_Q_CEadIC6-D5emqW">
    <mxGraphModel dx="1122" dy="668" grid="1" gridSize="10" guides="1" tooltips="1" connect="1" arrows="1" fold="1" page="1" pageScale="1" pageWidth="850" pageHeight="1100" math="0" shadow="0">
      <root>
        <mxCell id="0" />
        <mxCell id="1" parent="0" />
        <mxCell id="m6UcVt8DHTyEMosxwBQ_-36" style="edgeStyle=none;shape=connector;rounded=0;orthogonalLoop=1;jettySize=auto;html=1;exitX=1;exitY=1;exitDx=0;exitDy=0;entryX=0;entryY=0;entryDx=0;entryDy=0;strokeColor=default;align=center;verticalAlign=middle;fontFamily=Helvetica;fontSize=11;fontColor=default;labelBackgroundColor=default;endArrow=none;endFill=0;" edge="1" parent="1" source="m6UcVt8DHTyEMosxwBQ_-4" target="m6UcVt8DHTyEMosxwBQ_-7">
          <mxGeometry relative="1" as="geometry" />
        </mxCell>
        <mxCell id="m6UcVt8DHTyEMosxwBQ_-4" value="" style="ellipse;whiteSpace=wrap;html=1;" vertex="1" parent="1">
          <mxGeometry x="130" y="40" width="210" height="170" as="geometry" />
        </mxCell>
        <mxCell id="m6UcVt8DHTyEMosxwBQ_-1" value="" style="shape=mxgraph.cisco.servers.server_with_router;sketch=0;html=1;pointerEvents=1;dashed=0;fillColor=#036897;strokeColor=#ffffff;strokeWidth=2;verticalLabelPosition=bottom;verticalAlign=top;align=center;outlineConnect=0;" vertex="1" parent="1">
          <mxGeometry x="216" y="93" width="38" height="64" as="geometry" />
        </mxCell>
        <mxCell id="m6UcVt8DHTyEMosxwBQ_-2" value="&lt;div style=&quot;font-size: 13px;&quot;&gt;&lt;font size=&quot;1&quot;&gt;&lt;b style=&quot;font-size: 14px;&quot;&gt;Central Node&lt;/b&gt;&lt;/font&gt;&lt;/div&gt;" style="text;html=1;align=center;verticalAlign=middle;resizable=0;points=[];autosize=1;strokeColor=none;fillColor=none;" vertex="1" parent="1">
          <mxGeometry x="170" y="60" width="110" height="30" as="geometry" />
        </mxCell>
        <mxCell id="m6UcVt8DHTyEMosxwBQ_-28" style="edgeStyle=none;shape=connector;rounded=0;orthogonalLoop=1;jettySize=auto;html=1;entryX=0.5;entryY=0;entryDx=0;entryDy=0;strokeColor=default;align=center;verticalAlign=middle;fontFamily=Helvetica;fontSize=11;fontColor=default;labelBackgroundColor=default;endArrow=none;endFill=0;" edge="1" parent="1" source="m6UcVt8DHTyEMosxwBQ_-5" target="m6UcVt8DHTyEMosxwBQ_-9">
          <mxGeometry relative="1" as="geometry" />
        </mxCell>
        <mxCell id="m6UcVt8DHTyEMosxwBQ_-29" style="edgeStyle=none;shape=connector;rounded=0;orthogonalLoop=1;jettySize=auto;html=1;exitX=1;exitY=1;exitDx=0;exitDy=0;entryX=0.5;entryY=0;entryDx=0;entryDy=0;strokeColor=default;align=center;verticalAlign=middle;fontFamily=Helvetica;fontSize=11;fontColor=default;labelBackgroundColor=default;endArrow=none;endFill=0;" edge="1" parent="1" source="m6UcVt8DHTyEMosxwBQ_-5" target="m6UcVt8DHTyEMosxwBQ_-10">
          <mxGeometry relative="1" as="geometry" />
        </mxCell>
        <mxCell id="m6UcVt8DHTyEMosxwBQ_-5" value="" style="ellipse;whiteSpace=wrap;html=1;" vertex="1" parent="1">
          <mxGeometry x="40" y="250" width="130" height="130" as="geometry" />
        </mxCell>
        <mxCell id="m6UcVt8DHTyEMosxwBQ_-30" style="edgeStyle=none;shape=connector;rounded=0;orthogonalLoop=1;jettySize=auto;html=1;entryX=0.5;entryY=0;entryDx=0;entryDy=0;strokeColor=default;align=center;verticalAlign=middle;fontFamily=Helvetica;fontSize=11;fontColor=default;labelBackgroundColor=default;endArrow=none;endFill=0;" edge="1" parent="1" source="m6UcVt8DHTyEMosxwBQ_-7" target="m6UcVt8DHTyEMosxwBQ_-10">
          <mxGeometry relative="1" as="geometry" />
        </mxCell>
        <mxCell id="m6UcVt8DHTyEMosxwBQ_-33" style="edgeStyle=none;shape=connector;rounded=0;orthogonalLoop=1;jettySize=auto;html=1;entryX=0.5;entryY=0;entryDx=0;entryDy=0;strokeColor=default;align=center;verticalAlign=middle;fontFamily=Helvetica;fontSize=11;fontColor=default;labelBackgroundColor=default;endArrow=none;endFill=0;" edge="1" parent="1" source="m6UcVt8DHTyEMosxwBQ_-7" target="m6UcVt8DHTyEMosxwBQ_-9">
          <mxGeometry relative="1" as="geometry" />
        </mxCell>
        <mxCell id="m6UcVt8DHTyEMosxwBQ_-7" value="" style="ellipse;whiteSpace=wrap;html=1;" vertex="1" parent="1">
          <mxGeometry x="504" y="280" width="130" height="130" as="geometry" />
        </mxCell>
        <mxCell id="m6UcVt8DHTyEMosxwBQ_-31" style="edgeStyle=none;shape=connector;rounded=0;orthogonalLoop=1;jettySize=auto;html=1;exitX=0;exitY=1;exitDx=0;exitDy=0;entryX=0.5;entryY=0;entryDx=0;entryDy=0;strokeColor=default;align=center;verticalAlign=middle;fontFamily=Helvetica;fontSize=11;fontColor=default;labelBackgroundColor=default;endArrow=none;endFill=0;" edge="1" parent="1" source="m6UcVt8DHTyEMosxwBQ_-8" target="m6UcVt8DHTyEMosxwBQ_-10">
          <mxGeometry relative="1" as="geometry" />
        </mxCell>
        <mxCell id="m6UcVt8DHTyEMosxwBQ_-32" style="edgeStyle=none;shape=connector;rounded=0;orthogonalLoop=1;jettySize=auto;html=1;entryX=0.5;entryY=0;entryDx=0;entryDy=0;strokeColor=default;align=center;verticalAlign=middle;fontFamily=Helvetica;fontSize=11;fontColor=default;labelBackgroundColor=default;endArrow=none;endFill=0;" edge="1" parent="1" source="m6UcVt8DHTyEMosxwBQ_-8" target="m6UcVt8DHTyEMosxwBQ_-9">
          <mxGeometry relative="1" as="geometry" />
        </mxCell>
        <mxCell id="m6UcVt8DHTyEMosxwBQ_-8" value="" style="ellipse;whiteSpace=wrap;html=1;" vertex="1" parent="1">
          <mxGeometry x="454" y="90" width="130" height="130" as="geometry" />
        </mxCell>
        <mxCell id="m6UcVt8DHTyEMosxwBQ_-9" value="" style="ellipse;whiteSpace=wrap;html=1;dashed=1;dashPattern=12 12;" vertex="1" parent="1">
          <mxGeometry x="6" y="480" width="234" height="200" as="geometry" />
        </mxCell>
        <mxCell id="m6UcVt8DHTyEMosxwBQ_-10" value="" style="ellipse;whiteSpace=wrap;html=1;dashed=1;dashPattern=12 12;" vertex="1" parent="1">
          <mxGeometry x="330" y="520" width="230" height="170" as="geometry" />
        </mxCell>
        <mxCell id="m6UcVt8DHTyEMosxwBQ_-20" value="&lt;font size=&quot;1&quot;&gt;&lt;b style=&quot;font-size: 14px;&quot;&gt;Proxy Node&lt;/b&gt;&lt;/font&gt;" style="text;html=1;align=center;verticalAlign=middle;resizable=0;points=[];autosize=1;strokeColor=none;fillColor=none;fontFamily=Helvetica;fontSize=11;fontColor=default;labelBackgroundColor=default;" vertex="1" parent="1">
          <mxGeometry x="55" y="220" width="100" height="30" as="geometry" />
        </mxCell>
        <mxCell id="m6UcVt8DHTyEMosxwBQ_-21" value="&lt;font size=&quot;1&quot;&gt;&lt;b style=&quot;font-size: 14px;&quot;&gt;Proxy Node&lt;/b&gt;&lt;/font&gt;" style="text;html=1;align=center;verticalAlign=middle;resizable=0;points=[];autosize=1;strokeColor=none;fillColor=none;fontFamily=Helvetica;fontSize=11;fontColor=default;labelBackgroundColor=default;" vertex="1" parent="1">
          <mxGeometry x="519" y="250" width="100" height="30" as="geometry" />
        </mxCell>
        <mxCell id="m6UcVt8DHTyEMosxwBQ_-22" value="&lt;font size=&quot;1&quot;&gt;&lt;b style=&quot;font-size: 14px;&quot;&gt;Proxy Node&lt;/b&gt;&lt;/font&gt;" style="text;html=1;align=center;verticalAlign=middle;resizable=0;points=[];autosize=1;strokeColor=none;fillColor=none;fontFamily=Helvetica;fontSize=11;fontColor=default;labelBackgroundColor=default;" vertex="1" parent="1">
          <mxGeometry x="465" y="60" width="100" height="30" as="geometry" />
        </mxCell>
        <mxCell id="m6UcVt8DHTyEMosxwBQ_-24" value="" style="shape=mxgraph.cisco.switches.generic_softswitch;sketch=0;html=1;pointerEvents=1;dashed=0;fillColor=#036897;strokeColor=#ffffff;strokeWidth=2;verticalLabelPosition=bottom;verticalAlign=top;align=center;outlineConnect=0;fontFamily=Helvetica;fontSize=11;fontColor=default;labelBackgroundColor=default;" vertex="1" parent="1">
          <mxGeometry x="80" y="277.5" width="50" height="75" as="geometry" />
        </mxCell>
        <mxCell id="m6UcVt8DHTyEMosxwBQ_-25" value="" style="shape=mxgraph.cisco.switches.generic_softswitch;sketch=0;html=1;pointerEvents=1;dashed=0;fillColor=#036897;strokeColor=#ffffff;strokeWidth=2;verticalLabelPosition=bottom;verticalAlign=top;align=center;outlineConnect=0;fontFamily=Helvetica;fontSize=11;fontColor=default;labelBackgroundColor=default;" vertex="1" parent="1">
          <mxGeometry x="544" y="307.5" width="50" height="75" as="geometry" />
        </mxCell>
        <mxCell id="m6UcVt8DHTyEMosxwBQ_-26" value="" style="shape=mxgraph.cisco.switches.generic_softswitch;sketch=0;html=1;pointerEvents=1;dashed=0;fillColor=#036897;strokeColor=#ffffff;strokeWidth=2;verticalLabelPosition=bottom;verticalAlign=top;align=center;outlineConnect=0;fontFamily=Helvetica;fontSize=11;fontColor=default;labelBackgroundColor=default;" vertex="1" parent="1">
          <mxGeometry x="494" y="117.5" width="50" height="75" as="geometry" />
        </mxCell>
        <mxCell id="m6UcVt8DHTyEMosxwBQ_-34" style="edgeStyle=none;shape=connector;rounded=0;orthogonalLoop=1;jettySize=auto;html=1;exitX=0;exitY=1;exitDx=0;exitDy=0;entryX=0.705;entryY=0.054;entryDx=0;entryDy=0;entryPerimeter=0;strokeColor=default;align=center;verticalAlign=middle;fontFamily=Helvetica;fontSize=11;fontColor=default;labelBackgroundColor=default;endArrow=none;endFill=0;" edge="1" parent="1" source="m6UcVt8DHTyEMosxwBQ_-4" target="m6UcVt8DHTyEMosxwBQ_-5">
          <mxGeometry relative="1" as="geometry" />
        </mxCell>
        <mxCell id="m6UcVt8DHTyEMosxwBQ_-35" style="edgeStyle=none;shape=connector;rounded=0;orthogonalLoop=1;jettySize=auto;html=1;entryX=0.021;entryY=0.406;entryDx=0;entryDy=0;entryPerimeter=0;strokeColor=default;align=center;verticalAlign=middle;fontFamily=Helvetica;fontSize=11;fontColor=default;labelBackgroundColor=default;endArrow=none;endFill=0;" edge="1" parent="1" source="m6UcVt8DHTyEMosxwBQ_-4" target="m6UcVt8DHTyEMosxwBQ_-8">
          <mxGeometry relative="1" as="geometry" />
        </mxCell>
        <mxCell id="m6UcVt8DHTyEMosxwBQ_-40" value="" style="shape=mxgraph.cisco.switches.generic_softswitch;sketch=0;html=1;pointerEvents=1;dashed=0;fillColor=#036897;strokeColor=#ffffff;strokeWidth=2;verticalLabelPosition=bottom;verticalAlign=top;align=center;outlineConnect=0;fontFamily=Helvetica;fontSize=11;fontColor=default;labelBackgroundColor=default;" vertex="1" parent="1">
          <mxGeometry x="98" y="500" width="50" height="75" as="geometry" />
        </mxCell>
        <mxCell id="m6UcVt8DHTyEMosxwBQ_-41" value="" style="shape=mxgraph.cisco.switches.generic_softswitch;sketch=0;html=1;pointerEvents=1;dashed=0;fillColor=#036897;strokeColor=#ffffff;strokeWidth=2;verticalLabelPosition=bottom;verticalAlign=top;align=center;outlineConnect=0;fontFamily=Helvetica;fontSize=11;fontColor=default;labelBackgroundColor=default;" vertex="1" parent="1">
          <mxGeometry x="425" y="550" width="50" height="75" as="geometry" />
        </mxCell>
        <mxCell id="m6UcVt8DHTyEMosxwBQ_-43" value="&lt;div&gt;&lt;b&gt;&lt;font style=&quot;font-size: 14px;&quot;&gt;Nest&lt;/font&gt;&lt;/b&gt;&lt;/div&gt;&lt;div&gt;&lt;b&gt;&lt;font style=&quot;font-size: 14px;&quot;&gt;2&lt;/font&gt;&lt;/b&gt;&lt;/div&gt;" style="text;html=1;align=center;verticalAlign=middle;resizable=0;points=[];autosize=1;strokeColor=none;fillColor=none;fontFamily=Helvetica;fontSize=11;fontColor=default;labelBackgroundColor=default;" vertex="1" parent="1">
          <mxGeometry x="370" y="533" width="50" height="50" as="geometry" />
        </mxCell>
        <mxCell id="m6UcVt8DHTyEMosxwBQ_-45" value="" style="shape=mxgraph.cisco.wireless.wireless;sketch=0;html=1;pointerEvents=1;dashed=0;fillColor=#036897;strokeColor=#ffffff;strokeWidth=2;verticalLabelPosition=bottom;verticalAlign=top;align=center;outlineConnect=0;fontFamily=Helvetica;fontSize=11;fontColor=default;labelBackgroundColor=default;" vertex="1" parent="1">
          <mxGeometry x="155" y="576.5" width="37" height="67" as="geometry" />
        </mxCell>
        <mxCell id="m6UcVt8DHTyEMosxwBQ_-46" value="" style="shape=mxgraph.cisco.wireless.wireless;sketch=0;html=1;pointerEvents=1;dashed=0;fillColor=#036897;strokeColor=#ffffff;strokeWidth=2;verticalLabelPosition=bottom;verticalAlign=top;align=center;outlineConnect=0;fontFamily=Helvetica;fontSize=11;fontColor=default;labelBackgroundColor=default;" vertex="1" parent="1">
          <mxGeometry x="30" y="546.5" width="37" height="67" as="geometry" />
        </mxCell>
        <mxCell id="m6UcVt8DHTyEMosxwBQ_-47" value="" style="shape=mxgraph.cisco.wireless.wireless;sketch=0;html=1;pointerEvents=1;dashed=0;fillColor=#036897;strokeColor=#ffffff;strokeWidth=2;verticalLabelPosition=bottom;verticalAlign=top;align=center;outlineConnect=0;fontFamily=Helvetica;fontSize=11;fontColor=default;labelBackgroundColor=default;" vertex="1" parent="1">
          <mxGeometry x="360" y="583" width="37" height="67" as="geometry" />
        </mxCell>
        <mxCell id="m6UcVt8DHTyEMosxwBQ_-48" value="" style="shape=mxgraph.cisco.wireless.wireless;sketch=0;html=1;pointerEvents=1;dashed=0;fillColor=#036897;strokeColor=#ffffff;strokeWidth=2;verticalLabelPosition=bottom;verticalAlign=top;align=center;outlineConnect=0;fontFamily=Helvetica;fontSize=11;fontColor=default;labelBackgroundColor=default;" vertex="1" parent="1">
          <mxGeometry x="504" y="562.5" width="37" height="67" as="geometry" />
        </mxCell>
        <mxCell id="m6UcVt8DHTyEMosxwBQ_-49" value="&lt;div&gt;&lt;b&gt;&lt;font style=&quot;font-size: 14px;&quot;&gt;Nest&lt;/font&gt;&lt;/b&gt;&lt;/div&gt;&lt;div&gt;&lt;b&gt;&lt;font style=&quot;font-size: 14px;&quot;&gt;1&lt;/font&gt;&lt;/b&gt;&lt;/div&gt;" style="text;html=1;align=center;verticalAlign=middle;resizable=0;points=[];autosize=1;strokeColor=none;fillColor=none;fontFamily=Helvetica;fontSize=11;fontColor=default;labelBackgroundColor=default;" vertex="1" parent="1">
          <mxGeometry x="166" y="512.5" width="50" height="50" as="geometry" />
        </mxCell>
        <mxCell id="m6UcVt8DHTyEMosxwBQ_-50" value="&lt;font style=&quot;font-size: 15px;&quot;&gt;&lt;b&gt;1&lt;/b&gt;&lt;/font&gt;" style="text;html=1;align=center;verticalAlign=middle;resizable=0;points=[];autosize=1;strokeColor=none;fillColor=none;fontFamily=Helvetica;fontSize=11;fontColor=default;labelBackgroundColor=default;" vertex="1" parent="1">
          <mxGeometry x="90" y="250" width="30" height="30" as="geometry" />
        </mxCell>
        <mxCell id="m6UcVt8DHTyEMosxwBQ_-51" value="&lt;font size=&quot;1&quot;&gt;&lt;b style=&quot;font-size: 15px;&quot;&gt;3&lt;/b&gt;&lt;/font&gt;" style="text;html=1;align=center;verticalAlign=middle;resizable=0;points=[];autosize=1;strokeColor=none;fillColor=none;fontFamily=Helvetica;fontSize=11;fontColor=default;labelBackgroundColor=default;" vertex="1" parent="1">
          <mxGeometry x="554" y="280" width="30" height="30" as="geometry" />
        </mxCell>
        <mxCell id="m6UcVt8DHTyEMosxwBQ_-52" value="&lt;font size=&quot;1&quot;&gt;&lt;b style=&quot;font-size: 15px;&quot;&gt;2&lt;/b&gt;&lt;/font&gt;" style="text;html=1;align=center;verticalAlign=middle;resizable=0;points=[];autosize=1;strokeColor=none;fillColor=none;fontFamily=Helvetica;fontSize=11;fontColor=default;labelBackgroundColor=default;" vertex="1" parent="1">
          <mxGeometry x="504" y="90" width="30" height="30" as="geometry" />
        </mxCell>
        <mxCell id="m6UcVt8DHTyEMosxwBQ_-55" value="&lt;font style=&quot;font-size: 12px;&quot;&gt;&lt;b&gt;IoT Devices&lt;/b&gt;&lt;/font&gt;" style="text;html=1;align=center;verticalAlign=middle;resizable=0;points=[];autosize=1;strokeColor=none;fillColor=none;fontFamily=Helvetica;fontSize=11;fontColor=default;labelBackgroundColor=default;" vertex="1" parent="1">
          <mxGeometry x="60" y="620" width="90" height="30" as="geometry" />
        </mxCell>
        <mxCell id="m6UcVt8DHTyEMosxwBQ_-56" value="&lt;font style=&quot;font-size: 12px;&quot;&gt;&lt;b&gt;IoT Devices&lt;/b&gt;&lt;/font&gt;" style="text;whiteSpace=wrap;html=1;fontFamily=Helvetica;fontSize=11;fontColor=default;labelBackgroundColor=default;" vertex="1" parent="1">
          <mxGeometry x="419" y="643.5" width="100" height="40" as="geometry" />
        </mxCell>
      </root>
    </mxGraphModel>
  </diagram>
</mxfile>
